<svg width="177" height="30" viewBox="0 0 177 30" fill="none" xmlns="http://www.w3.org/2000/svg">
<rect x="153" y="17.2222" width="11.1111" height="11.1111" rx="5.55556" fill="#00A1F1"/>
<rect width="11.1111" height="11.1111" rx="5.55556" transform="matrix(1 0 0 -1 165.889 15.4444)" fill="#7CBB00"/>
<rect width="11.1111" height="11.1111" rx="5.55556" transform="matrix(1 0 0 -1 153 15.4444)" fill="#FFBB00"/>
<rect width="11.1111" height="11.1111" rx="5.55556" transform="matrix(1 0 0 -1 165.889 28.3333)" fill="#F65314"/>
<path d="M9.019 27.261C7.917 27.261 6.815 27.2223 5.713 27.145C4.63033 27.087 3.49933 26.9323 2.32 26.681V7.193C3.248 7.019 4.263 6.89333 5.365 6.816C6.467 6.71933 7.49167 6.671 8.439 6.671C9.715 6.671 10.8847 6.76767 11.948 6.961C13.0307 7.135 13.9587 7.44433 14.732 7.889C15.5053 8.33367 16.1047 8.92333 16.53 9.658C16.9747 10.3733 17.197 11.2627 17.197 12.326C17.197 13.9307 16.4237 15.197 14.877 16.125C16.153 16.6083 17.023 17.2657 17.487 18.097C17.951 18.9283 18.183 19.866 18.183 20.91C18.183 23.0173 17.4097 24.6027 15.863 25.666C14.3357 26.7293 12.0543 27.261 9.019 27.261ZM6.728 18.242V23.433C7.05667 23.4717 7.41433 23.5007 7.801 23.52C8.18767 23.5393 8.613 23.549 9.077 23.549C10.4303 23.549 11.5227 23.3557 12.354 22.969C13.1853 22.5823 13.601 21.867 13.601 20.823C13.601 19.895 13.253 19.2377 12.557 18.851C11.861 18.445 10.8653 18.242 9.57 18.242H6.728ZM6.728 14.791H8.932C10.324 14.791 11.3197 14.617 11.919 14.269C12.5183 13.9017 12.818 13.3217 12.818 12.529C12.818 11.717 12.5087 11.1467 11.89 10.818C11.2713 10.4893 10.3627 10.325 9.164 10.325C8.77733 10.325 8.36167 10.3347 7.917 10.354C7.47233 10.354 7.076 10.3733 6.728 10.412V14.791ZM25.8354 27H21.5144V11.746H25.8354V27ZM26.2414 7.338C26.2414 8.13067 25.9804 8.759 25.4584 9.223C24.9557 9.66767 24.3564 9.89 23.6604 9.89C22.9644 9.89 22.3554 9.66767 21.8334 9.223C21.3307 8.759 21.0794 8.13067 21.0794 7.338C21.0794 6.54533 21.3307 5.92667 21.8334 5.482C22.3554 5.018 22.9644 4.786 23.6604 4.786C24.3564 4.786 24.9557 5.018 25.4584 5.482C25.9804 5.92667 26.2414 6.54533 26.2414 7.338ZM35.9872 27.29C34.7305 27.2707 33.7059 27.1353 32.9132 26.884C32.1399 26.6327 31.5212 26.2847 31.0572 25.84C30.6125 25.376 30.3032 24.825 30.1292 24.187C29.9745 23.5297 29.8972 22.795 29.8972 21.983V5.192L34.2182 4.496V21.113C34.2182 21.4997 34.2472 21.8477 34.3052 22.157C34.3632 22.4663 34.4695 22.7273 34.6242 22.94C34.7982 23.1527 35.0399 23.3267 35.3492 23.462C35.6585 23.5973 36.0742 23.6843 36.5962 23.723L35.9872 27.29ZM45.163 27.29C43.9063 27.2707 42.8816 27.1353 42.089 26.884C41.3156 26.6327 40.697 26.2847 40.233 25.84C39.7883 25.376 39.479 24.825 39.305 24.187C39.1503 23.5297 39.073 22.795 39.073 21.983V5.192L43.394 4.496V21.113C43.394 21.4997 43.423 21.8477 43.481 22.157C43.539 22.4663 43.6453 22.7273 43.8 22.94C43.974 23.1527 44.2156 23.3267 44.525 23.462C44.8343 23.5973 45.25 23.6843 45.772 23.723L45.163 27.29ZM65.3075 10.383C63.2002 10.383 61.6729 10.9727 60.7255 12.152C59.7975 13.312 59.3335 14.907 59.3335 16.937C59.3335 17.923 59.4495 18.822 59.6815 19.634C59.9135 20.4267 60.2615 21.113 60.7255 21.693C61.1895 22.273 61.7695 22.7273 62.4655 23.056C63.1615 23.3653 63.9735 23.52 64.9015 23.52C65.4042 23.52 65.8295 23.5103 66.1775 23.491C66.5449 23.4717 66.8639 23.433 67.1345 23.375V16.386H71.6585V26.333C71.1172 26.5457 70.2472 26.768 69.0485 27C67.8499 27.2513 66.3709 27.377 64.6115 27.377C63.1035 27.377 61.7309 27.145 60.4935 26.681C59.2755 26.217 58.2315 25.5403 57.3615 24.651C56.4915 23.7617 55.8149 22.6693 55.3315 21.374C54.8675 20.0787 54.6355 18.5997 54.6355 16.937C54.6355 15.255 54.8965 13.7663 55.4185 12.471C55.9405 11.1757 56.6559 10.0833 57.5645 9.194C58.4732 8.28533 59.5365 7.599 60.7545 7.135C61.9919 6.671 63.3065 6.439 64.6985 6.439C65.6459 6.439 66.4965 6.50667 67.2505 6.642C68.0239 6.758 68.6812 6.903 69.2225 7.077C69.7832 7.23167 70.2375 7.396 70.5855 7.57C70.9529 7.744 71.2139 7.87933 71.3685 7.976L70.0635 11.601C69.4449 11.2723 68.7295 10.992 67.9175 10.76C67.1249 10.5087 66.2549 10.383 65.3075 10.383ZM81.4069 23.984C81.8322 23.984 82.2382 23.9743 82.6249 23.955C83.0115 23.9357 83.3209 23.9067 83.5529 23.868V20.591C83.3789 20.5523 83.1179 20.5137 82.7699 20.475C82.4219 20.4363 82.1029 20.417 81.8129 20.417C81.4069 20.417 81.0202 20.446 80.6529 20.504C80.3049 20.5427 79.9955 20.6297 79.7249 20.765C79.4542 20.9003 79.2415 21.084 79.0869 21.316C78.9322 21.548 78.8549 21.838 78.8549 22.186C78.8549 22.8627 79.0772 23.3363 79.5219 23.607C79.9859 23.8583 80.6142 23.984 81.4069 23.984ZM81.0589 11.34C82.3349 11.34 83.3982 11.485 84.2489 11.775C85.0995 12.065 85.7762 12.4807 86.2789 13.022C86.8009 13.5633 87.1682 14.2207 87.3809 14.994C87.5935 15.7673 87.6999 16.6277 87.6999 17.575V26.565C87.0812 26.7003 86.2209 26.855 85.1189 27.029C84.0169 27.2223 82.6829 27.319 81.1169 27.319C80.1309 27.319 79.2319 27.232 78.4199 27.058C77.6272 26.884 76.9409 26.6037 76.3609 26.217C75.7809 25.811 75.3362 25.289 75.0269 24.651C74.7175 24.013 74.5629 23.23 74.5629 22.302C74.5629 21.4127 74.7369 20.6587 75.0849 20.04C75.4522 19.4213 75.9355 18.9283 76.5349 18.561C77.1342 18.1937 77.8205 17.9327 78.5939 17.778C79.3672 17.604 80.1695 17.517 81.0009 17.517C81.5615 17.517 82.0545 17.546 82.4799 17.604C82.9245 17.6427 83.2822 17.7007 83.5529 17.778V17.372C83.5529 16.6373 83.3305 16.0477 82.8859 15.603C82.4412 15.1583 81.6679 14.936 80.5659 14.936C79.8312 14.936 79.1062 14.994 78.3909 15.11C77.6755 15.2067 77.0569 15.3517 76.5349 15.545L75.9839 12.065C76.2352 11.9877 76.5445 11.9103 76.9119 11.833C77.2985 11.7363 77.7142 11.659 78.1589 11.601C78.6035 11.5237 79.0675 11.4657 79.5509 11.427C80.0535 11.369 80.5562 11.34 81.0589 11.34ZM91.4621 7.947L95.7831 7.251V11.746H100.974V15.342H95.7831V20.707C95.7831 21.6157 95.9378 22.3407 96.2471 22.882C96.5758 23.4233 97.2235 23.694 98.1901 23.694C98.6541 23.694 99.1278 23.6553 99.6111 23.578C100.114 23.4813 100.568 23.3557 100.974 23.201L101.583 26.565C101.061 26.7777 100.481 26.9613 99.8431 27.116C99.2051 27.2707 98.4221 27.348 97.4941 27.348C96.3148 27.348 95.3385 27.1933 94.5651 26.884C93.7918 26.5553 93.1731 26.1107 92.7091 25.55C92.2451 24.97 91.9165 24.274 91.7231 23.462C91.5491 22.65 91.4621 21.751 91.4621 20.765V7.947ZM118.194 19.344C118.194 20.5427 118.02 21.6447 117.672 22.65C117.324 23.636 116.822 24.4867 116.164 25.202C115.507 25.898 114.714 26.4393 113.786 26.826C112.878 27.2127 111.853 27.406 110.712 27.406C109.591 27.406 108.566 27.2127 107.638 26.826C106.73 26.4393 105.947 25.898 105.289 25.202C104.632 24.4867 104.12 23.636 103.752 22.65C103.385 21.6447 103.201 20.5427 103.201 19.344C103.201 18.1453 103.385 17.053 103.752 16.067C104.139 15.081 104.661 14.24 105.318 13.544C105.995 12.848 106.788 12.3067 107.696 11.92C108.624 11.5333 109.63 11.34 110.712 11.34C111.814 11.34 112.82 11.5333 113.728 11.92C114.656 12.3067 115.449 12.848 116.106 13.544C116.764 14.24 117.276 15.081 117.643 16.067C118.011 17.053 118.194 18.1453 118.194 19.344ZM113.786 19.344C113.786 18.01 113.516 16.966 112.974 16.212C112.452 15.4387 111.698 15.052 110.712 15.052C109.726 15.052 108.963 15.4387 108.421 16.212C107.88 16.966 107.609 18.01 107.609 19.344C107.609 20.678 107.88 21.7413 108.421 22.534C108.963 23.3073 109.726 23.694 110.712 23.694C111.698 23.694 112.452 23.3073 112.974 22.534C113.516 21.7413 113.786 20.678 113.786 19.344ZM125.921 23.897C126.713 23.897 127.274 23.8197 127.603 23.665C127.931 23.5103 128.096 23.2107 128.096 22.766C128.096 22.418 127.883 22.1183 127.458 21.867C127.032 21.5963 126.385 21.2967 125.515 20.968C124.838 20.7167 124.219 20.4557 123.659 20.185C123.117 19.9143 122.653 19.5953 122.267 19.228C121.88 18.8413 121.58 18.387 121.368 17.865C121.155 17.343 121.049 16.7147 121.049 15.98C121.049 14.5493 121.58 13.4183 122.644 12.587C123.707 11.7557 125.167 11.34 127.023 11.34C127.951 11.34 128.84 11.427 129.691 11.601C130.541 11.7557 131.218 11.9297 131.721 12.123L130.967 15.487C130.464 15.313 129.913 15.1583 129.314 15.023C128.734 14.8877 128.076 14.82 127.342 14.82C125.988 14.82 125.312 15.197 125.312 15.951C125.312 16.125 125.341 16.2797 125.399 16.415C125.457 16.5503 125.573 16.6857 125.747 16.821C125.921 16.937 126.153 17.0723 126.443 17.227C126.752 17.3623 127.139 17.517 127.603 17.691C128.55 18.039 129.333 18.387 129.952 18.735C130.57 19.0637 131.054 19.431 131.402 19.837C131.769 20.2237 132.02 20.6587 132.156 21.142C132.31 21.6253 132.388 22.186 132.388 22.824C132.388 24.332 131.817 25.4727 130.677 26.246C129.555 27.0193 127.96 27.406 125.892 27.406C124.538 27.406 123.407 27.29 122.499 27.058C121.609 26.826 120.991 26.6327 120.643 26.478L121.368 22.969C122.102 23.259 122.856 23.491 123.63 23.665C124.403 23.8197 125.167 23.897 125.921 23.897Z" fill="#333333"/>
</svg>
