<svg width="177" height="30" viewBox="0 0 177 30" fill="none" xmlns="http://www.w3.org/2000/svg">
<rect x="153" y="17.2222" width="11.1111" height="11.1111" rx="5.55556" fill="#00A1F1"/>
<rect width="11.1111" height="11.1111" rx="5.55556" transform="matrix(1 0 0 -1 165.889 15.4444)" fill="#7CBB00"/>
<rect width="11.1111" height="11.1111" rx="5.55556" transform="matrix(1 0 0 -1 153 15.4444)" fill="#FFBB00"/>
<rect width="11.1111" height="11.1111" rx="5.55556" transform="matrix(1 0 0 -1 165.889 28.3333)" fill="#F65314"/>
<path d="M9.019 27.261C7.917 27.261 6.815 27.2223 5.713 27.145C4.63033 27.087 3.49933 26.9323 2.32 26.681V7.193C3.248 7.019 4.263 6.89333 5.365 6.816C6.467 6.71933 7.49167 6.671 8.439 6.671C9.715 6.671 10.8847 6.76767 11.948 6.961C13.0307 7.135 13.9587 7.44433 14.732 7.889C15.5053 8.33367 16.1047 8.92333 16.53 9.658C16.9747 10.3733 17.197 11.2627 17.197 12.326C17.197 13.9307 16.4237 15.197 14.877 16.125C16.153 16.6083 17.023 17.2657 17.487 18.097C17.951 18.9283 18.183 19.866 18.183 20.91C18.183 23.0173 17.4097 24.6027 15.863 25.666C14.3357 26.7293 12.0543 27.261 9.019 27.261ZM6.728 18.242V23.433C7.05667 23.4717 7.41433 23.5007 7.801 23.52C8.18767 23.5393 8.613 23.549 9.077 23.549C10.4303 23.549 11.5227 23.3557 12.354 22.969C13.1853 22.5823 13.601 21.867 13.601 20.823C13.601 19.895 13.253 19.2377 12.557 18.851C11.861 18.445 10.8653 18.242 9.57 18.242H6.728ZM6.728 14.791H8.932C10.324 14.791 11.3197 14.617 11.919 14.269C12.5183 13.9017 12.818 13.3217 12.818 12.529C12.818 11.717 12.5087 11.1467 11.89 10.818C11.2713 10.4893 10.3627 10.325 9.164 10.325C8.77733 10.325 8.36167 10.3347 7.917 10.354C7.47233 10.354 7.076 10.3733 6.728 10.412V14.791ZM25.8354 27H21.5144V11.746H25.8354V27ZM26.2414 7.338C26.2414 8.13067 25.9804 8.759 25.4584 9.223C24.9557 9.66767 24.3564 9.89 23.6604 9.89C22.9644 9.89 22.3554 9.66767 21.8334 9.223C21.3307 8.759 21.0794 8.13067 21.0794 7.338C21.0794 6.54533 21.3307 5.92667 21.8334 5.482C22.3554 5.018 22.9644 4.786 23.6604 4.786C24.3564 4.786 24.9557 5.018 25.4584 5.482C25.9804 5.92667 26.2414 6.54533 26.2414 7.338ZM35.9872 27.29C34.7305 27.2707 33.7059 27.1353 32.9132 26.884C32.1399 26.6327 31.5212 26.2847 31.0572 25.84C30.6125 25.376 30.3032 24.825 30.1292 24.187C29.9745 23.5297 29.8972 22.795 29.8972 21.983V5.192L34.2182 4.496V21.113C34.2182 21.4997 34.2472 21.8477 34.3052 22.157C34.3632 22.4663 34.4695 22.7273 34.6242 22.94C34.7982 23.1527 35.0399 23.3267 35.3492 23.462C35.6585 23.5973 36.0742 23.6843 36.5962 23.723L35.9872 27.29ZM45.163 27.29C43.9063 27.2707 42.8816 27.1353 42.089 26.884C41.3156 26.6327 40.697 26.2847 40.233 25.84C39.7883 25.376 39.479 24.825 39.305 24.187C39.1503 23.5297 39.073 22.795 39.073 21.983V5.192L43.394 4.496V21.113C43.394 21.4997 43.423 21.8477 43.481 22.157C43.539 22.4663 43.6453 22.7273 43.8 22.94C43.974 23.1527 44.2156 23.3267 44.525 23.462C44.8343 23.5973 45.25 23.6843 45.772 23.723L45.163 27.29ZM65.3075 10.383C63.2002 10.383 61.6729 10.9727 60.7255 12.152C59.7975 13.312 59.3335 14.907 59.3335 16.937C59.3335 17.923 59.4495 18.822 59.6815 19.634C59.9135 20.4267 60.2615 21.113 60.7255 21.693C61.1895 22.273 61.7695 22.7273 62.4655 23.056C63.1615 23.3653 63.9735 23.52 64.9015 23.52C65.4042 23.52 65.8295 23.5103 66.1775 23.491C66.5449 23.4717 66.8639 23.433 67.1345 23.375V16.386H71.6585V26.333C71.1172 26.5457 70.2472 26.768 69.0485 27C67.8499 27.2513 66.3709 27.377 64.6115 27.377C63.1035 27.377 61.7309 27.145 60.4935 26.681C59.2755 26.217 58.2315 25.5403 57.3615 24.651C56.4915 23.7617 55.8149 22.6693 55.3315 21.374C54.8675 20.0787 54.6355 18.5997 54.6355 16.937C54.6355 15.255 54.8965 13.7663 55.4185 12.471C55.9405 11.1757 56.6559 10.0833 57.5645 9.194C58.4732 8.28533 59.5365 7.599 60.7545 7.135C61.9919 6.671 63.3065 6.439 64.6985 6.439C65.6459 6.439 66.4965 6.50667 67.2505 6.642C68.0239 6.758 68.6812 6.903 69.2225 7.077C69.7832 7.23167 70.2375 7.396 70.5855 7.57C70.9529 7.744 71.2139 7.87933 71.3685 7.976L70.0635 11.601C69.4449 11.2723 68.7295 10.992 67.9175 10.76C67.1249 10.5087 66.2549 10.383 65.3075 10.383ZM81.4069 23.984C81.8322 23.984 82.2382 23.9743 82.6249 23.955C83.0115 23.9357 83.3209 23.9067 83.5529 23.868V20.591C83.3789 20.5523 83.1179 20.5137 82.7699 20.475C82.4219 20.4363 82.1029 20.417 81.8129 20.417C81.4069 20.417 81.0202 20.446 80.6529 20.504C80.3049 20.5427 79.9955 20.6297 79.7249 20.765C79.4542 20.9003 79.2415 21.084 79.0869 21.316C78.9322 21.548 78.8549 21.838 78.8549 22.186C78.8549 22.8627 79.0772 23.3363 79.5219 23.607C79.9859 23.8583 80.6142 23.984 81.4069 23.984ZM81.0589 11.34C82.3349 11.34 83.3982 11.485 84.2489 11.775C85.0995 12.065 85.7762 12.4807 86.2789 13.022C86.8009 13.5633 87.1682 14.2207 87.3809 14.994C87.5935 15.7673 87.6999 16.6277 87.6999 17.575V26.565C87.0812 26.7003 86.2209 26.855 85.1189 27.029C84.0169 27.2223 82.6829 27.319 81.1169 27.319C80.1309 27.319 79.2319 27.232 78.4199 27.058C77.6272 26.884 76.9409 26.6037 76.3609 26.217C75.7809 25.811 75.3362 25.289 75.0269 24.651C74.7175 24.013 74.5629 23.23 74.5629 22.302C74.5629 21.4127 74.7369 20.6587 75.0849 20.04C75.4522 19.4213 75.9355 18.9283 76.5349 18.561C77.1342 18.1937 77.8205 17.9327 78.5939 17.778C79.3672 17.604 80.1695 17.517 81.0009 17.517C81.5615 17.517 82.0545 17.546 82.4799 17.604C82.9245 17.6427 83.2822 17.7007 83.5529 17.778V17.372C83.5529 16.6373 83.3305 16.0477 82.8859 15.603C82.4412 15.1583 81.6679 14.936 80.5659 14.936C79.8312 14.936 79.1062 14.994 78.3909 15.11C77.6755 15.2067 77.0569 15.3517 76.5349 15.545L75.9839 12.065C76.2352 11.9877 76.5445 11.9103 76.9119 11.833C77.2985 11.7363 77.7142 11.659 78.1589 11.601C78.6035 11.5237 79.0675 11.4657 79.5509 11.427C80.0535 11.369 80.5562 11.34 81.0589 11.34ZM91.4621 7.947L95.7831 7.251V11.746H100.974V15.342H95.7831V20.707C95.7831 21.6157 95.9378 22.3407 96.2471 22.882C96.5758 23.4233 97.2235 23.694 98.1901 23.694C98.6541 23.694 99.1278 23.6553 99.6111 23.578C100.114 23.4813 100.568 23.3557 100.974 23.201L101.583 26.565C101.061 26.7777 100.481 26.9613 99.8431 27.116C99.2051 27.2707 98.4221 27.348 97.4941 27.348C96.3148 27.348 95.3385 27.1933 94.5651 26.884C93.7918 26.5553 93.1731 26.1107 92.7091 25.55C92.2451 24.97 91.9165 24.274 91.7231 23.462C91.5491 22.65 91.4621 21.751 91.4621 20.765V7.947ZM118.194 19.344C118.194 20.5427 118.02 21.6447 117.672 22.65C117.324 23.636 116.822 24.4867 116.164 25.202C115.507 25.898 114.714 26.4393 113.786 26.826C112.878 27.2127 111.853 27.406 110.712 27.406C109.591 27.406 108.566 27.2127 107.638 26.826C106.73 26.4393 105.947 25.898 105.289 25.202C104.632 24.4867 104.12 23.636 103.752 22.65C103.385 21.6447 103.201 20.5427 103.201 19.344C103.201 18.1453 103.385 17.053 103.752 16.067C104.139 15.081 104.661 14.24 105.318 13.544C105.995 12.848 106.788 12.3067 107.696 11.92C108.624 11.5333 109.63 11.34 110.712 11.34C111.814 11.34 112.82 11.5333 113.728 11.92C114.656 12.3067 115.449 12.848 116.106 13.544C116.764 14.24 117.276 15.081 117.643 16.067C118.011 17.053 118.194 18.1453 118.194 19.344ZM113.786 19.344C113.786 18.01 113.516 16.966 112.974 16.212C112.452 15.4387 111.698 15.052 110.712 15.052C109.726 15.052 108.963 15.4387 108.421 16.212C107.88 16.966 107.609 18.01 107.609 19.344C107.609 20.678 107.88 21.7413 108.421 22.534C108.963 23.3073 109.726 23.694 110.712 23.694C111.698 23.694 112.452 23.3073 112.974 22.534C113.516 21.7413 113.786 20.678 113.786 19.344ZM125.921 23.897C126.713 23.897 127.274 23.8197 127.603 23.665C127.931 23.5103 128.096 23.2107 128.096 22.766C128.096 22.418 127.883 22.1183 127.458 21.867C127.032 21.5963 126.385 21.2967 125.515 20.968C124.838 20.7167 124.219 20.4557 123.659 20.185C123.117 19.9143 122.653 19.5953 122.267 19.228C121.88 18.8413 121.58 18.387 121.368 17.865C121.155 17.343 121.049 16.7147 121.049 15.98C121.049 14.5493 121.58 13.4183 122.644 12.587C123.707 11.7557 125.167 11.34 127.023 11.34C127.951 11.34 128.84 11.427 129.691 11.601C130.541 11.7557 131.218 11.9297 131.721 12.123L130.967 15.487C130.464 15.313 129.913 15.1583 129.314 15.023C128.734 14.8877 128.076 14.82 127.342 14.82C125.988 14.82 125.312 15.197 125.312 15.951C125.312 16.125 125.341 16.2797 125.399 16.415C125.457 16.5503 125.573 16.6857 125.747 16.821C125.921 16.937 126.153 17.0723 126.443 17.227C126.752 17.3623 127.139 17.517 127.603 17.691C128.55 18.039 129.333 18.387 129.952 18.735C130.57 19.0637 131.054 19.431 131.402 19.837C131.769 20.2237 132.02 20.6587 132.156 21.142C132.31 21.6253 132.388 22.186 132.388 22.824C132.388 24.332 131.817 25.4727 130.677 26.246C129.555 27.0193 127.96 27.406 125.892 27.406C124.538 27.406 123.407 27.29 122.499 27.058C121.609 26.826 120.991 26.6327 120.643 26.478L121.368 22.969C122.102 23.259 122.856 23.491 123.63 23.665C124.403 23.8197 125.167 23.897 125.921 23.897Z" fill="white"/>
<path d="M5.713 27.145L5.727 26.9455L5.7237 26.9453L5.713 27.145ZM2.32 26.681H2.12V26.8429L2.27831 26.8766L2.32 26.681ZM2.32 7.193L2.28314 6.99642L2.12 7.02701V7.193H2.32ZM5.365 6.816L5.379 7.01554L5.38248 7.01523L5.365 6.816ZM11.948 6.961L11.9122 7.15781L11.9163 7.15846L11.948 6.961ZM14.732 7.889L14.6323 8.06238L14.732 7.889ZM16.53 9.658L16.3568 9.75826L16.3601 9.76359L16.53 9.658ZM14.877 16.125L14.7741 15.9535L14.4202 16.1658L14.8062 16.312L14.877 16.125ZM15.863 25.666L15.7497 25.5012L15.7487 25.5019L15.863 25.666ZM6.728 18.242V18.042H6.528V18.242H6.728ZM6.728 23.433H6.528V23.6108L6.70463 23.6316L6.728 23.433ZM7.801 23.52L7.81099 23.3202L7.801 23.52ZM12.354 22.969L12.2697 22.7877L12.354 22.969ZM12.557 18.851L12.4562 19.0238L12.4599 19.0258L12.557 18.851ZM6.728 14.791H6.528V14.991H6.728V14.791ZM11.919 14.269L12.0195 14.442L12.0235 14.4395L11.919 14.269ZM7.917 10.354V10.5542L7.92569 10.5538L7.917 10.354ZM6.728 10.412L6.70591 10.2132L6.528 10.233V10.412H6.728ZM9.019 27.061C7.92168 27.061 6.82435 27.0225 5.727 26.9455L5.699 27.3445C6.80565 27.4222 7.91232 27.461 9.019 27.461V27.061ZM5.7237 26.9453C4.65254 26.8879 3.53193 26.7348 2.36169 26.4854L2.27831 26.8766C3.46674 27.1299 4.60813 27.2861 5.7023 27.3447L5.7237 26.9453ZM2.52 26.681V7.193H2.12V26.681H2.52ZM2.35686 7.38957C3.27616 7.2172 4.28342 7.09239 5.379 7.01551L5.351 6.61649C4.24258 6.69427 3.21984 6.82079 2.28314 6.99642L2.35686 7.38957ZM5.38248 7.01523C6.4796 6.91899 7.49837 6.871 8.439 6.871V6.471C7.48496 6.471 6.4544 6.51967 5.34752 6.61676L5.38248 7.01523ZM8.439 6.871C9.70508 6.871 10.8626 6.96693 11.9122 7.15777L11.9838 6.76422C10.9068 6.5684 9.72492 6.471 8.439 6.471V6.871ZM11.9163 7.15846C12.9803 7.32947 13.8842 7.63221 14.6323 8.06238L14.8317 7.71562C14.0332 7.25646 13.081 6.94053 11.9797 6.76353L11.9163 7.15846ZM14.6323 8.06238C15.3768 8.49045 15.9501 9.05552 16.3569 9.75821L16.7031 9.55779C16.2592 8.79114 15.6339 8.17688 14.8317 7.71562L14.6323 8.06238ZM16.3601 9.76359C16.7805 10.4399 16.997 11.2903 16.997 12.326H17.397C17.397 11.2351 17.1688 10.3068 16.6999 9.55241L16.3601 9.76359ZM16.997 12.326C16.997 13.8506 16.2695 15.0563 14.7741 15.9535L14.9799 16.2965C16.5779 15.3377 17.397 14.0107 17.397 12.326H16.997ZM14.8062 16.312C16.0568 16.7858 16.8795 17.4189 17.3124 18.1945L17.6616 17.9995C17.1665 17.1124 16.2492 16.4309 14.9478 15.938L14.8062 16.312ZM17.3124 18.1945C17.7582 18.9932 17.983 19.8967 17.983 20.91H18.383C18.383 19.8353 18.1438 18.8635 17.6616 17.9995L17.3124 18.1945ZM17.983 20.91C17.983 22.9609 17.2348 24.4802 15.7497 25.5012L15.9763 25.8308C17.5846 24.7251 18.383 23.0738 18.383 20.91H17.983ZM15.7487 25.5019C14.2701 26.5313 12.037 27.061 9.019 27.061V27.461C12.0717 27.461 14.4013 26.9274 15.9773 25.8301L15.7487 25.5019ZM6.528 18.242V23.433H6.928V18.242H6.528ZM6.70463 23.6316C7.03841 23.6709 7.4006 23.7002 7.79101 23.7197L7.81099 23.3202C7.42806 23.3011 7.07492 23.2724 6.75137 23.2344L6.70463 23.6316ZM7.79101 23.7197C8.18158 23.7393 8.6103 23.749 9.077 23.749V23.349C8.6157 23.349 8.19375 23.3394 7.81099 23.3202L7.79101 23.7197ZM9.077 23.749C10.4468 23.749 11.5711 23.5537 12.4383 23.1503L12.2697 22.7877C11.4743 23.1576 10.4139 23.349 9.077 23.349V23.749ZM12.4383 23.1503C12.8869 22.9417 13.2316 22.6398 13.4622 22.243C13.6918 21.8478 13.801 21.3712 13.801 20.823H13.401C13.401 21.3188 13.3023 21.7219 13.1163 22.042C12.9313 22.3605 12.6524 22.6096 12.2697 22.7877L12.4383 23.1503ZM13.801 20.823C13.801 19.8368 13.4253 19.1046 12.6541 18.6762L12.4599 19.0258C13.0807 19.3707 13.401 19.9532 13.401 20.823H13.801ZM12.6578 18.6782C11.9179 18.2467 10.8814 18.042 9.57 18.042V18.442C10.8493 18.442 11.8041 18.6433 12.4562 19.0238L12.6578 18.6782ZM9.57 18.042H6.728V18.442H9.57V18.042ZM6.728 14.991H8.932V14.591H6.728V14.991ZM8.932 14.991C10.3303 14.991 11.3717 14.8181 12.0194 14.442L11.8186 14.096C11.2676 14.4159 10.3177 14.591 8.932 14.591V14.991ZM12.0235 14.4395C12.6907 14.0306 13.018 13.3807 13.018 12.529H12.618C12.618 13.2627 12.346 13.7727 11.8145 14.0985L12.0235 14.4395ZM13.018 12.529C13.018 11.6573 12.6795 11.011 11.9838 10.6414L11.7962 10.9946C12.3378 11.2824 12.618 11.7767 12.618 12.529H13.018ZM11.9838 10.6414C11.3225 10.2901 10.3751 10.125 9.164 10.125V10.525C10.3502 10.525 11.2201 10.6886 11.7962 10.9946L11.9838 10.6414ZM9.164 10.125C8.77404 10.125 8.35545 10.1347 7.90831 10.1542L7.92569 10.5538C8.36788 10.5346 8.78062 10.525 9.164 10.525V10.125ZM7.917 10.154C7.46682 10.154 7.06289 10.1736 6.70591 10.2132L6.75009 10.6108C7.08911 10.5731 7.47785 10.554 7.917 10.554V10.154ZM6.528 10.412V14.791H6.928V10.412H6.528ZM25.8354 27V27.2H26.0354V27H25.8354ZM21.5144 27H21.3144V27.2H21.5144V27ZM21.5144 11.746V11.546H21.3144V11.746H21.5144ZM25.8354 11.746H26.0354V11.546H25.8354V11.746ZM25.4584 9.223L25.5909 9.3728L25.5912 9.37248L25.4584 9.223ZM21.8334 9.223L21.6976 9.37008L21.7037 9.37525L21.8334 9.223ZM21.8334 5.482L21.9659 5.6318L21.9662 5.63148L21.8334 5.482ZM25.4584 5.482L25.3226 5.62908L25.3287 5.63425L25.4584 5.482ZM25.8354 26.8H21.5144V27.2H25.8354V26.8ZM21.7144 27V11.746H21.3144V27H21.7144ZM21.5144 11.946H25.8354V11.546H21.5144V11.946ZM25.6354 11.746V27H26.0354V11.746H25.6354ZM26.0414 7.338C26.0414 8.0821 25.7988 8.65281 25.3255 9.07352L25.5912 9.37248C26.1619 8.86519 26.4414 8.17924 26.4414 7.338H26.0414ZM25.3259 9.0732C24.8612 9.48423 24.3095 9.69 23.6604 9.69V10.09C24.4032 10.09 25.0502 9.8511 25.5909 9.3728L25.3259 9.0732ZM23.6604 9.69C23.0111 9.69 22.4483 9.48409 21.9631 9.07075L21.7037 9.37525C22.2625 9.85124 22.9176 10.09 23.6604 10.09V9.69ZM21.969 9.07604C21.514 8.65602 21.2794 8.08456 21.2794 7.338H20.8794C20.8794 8.17677 21.1474 8.86198 21.6977 9.36996L21.969 9.07604ZM21.2794 7.338C21.2794 6.59124 21.514 6.03156 21.9659 5.6318L21.7009 5.3322C21.1474 5.82177 20.8794 6.49942 20.8794 7.338H21.2794ZM21.9662 5.63148C22.4518 5.1999 23.0135 4.986 23.6604 4.986V4.586C22.9152 4.586 22.259 4.8361 21.7005 5.33252L21.9662 5.63148ZM23.6604 4.986C24.3071 4.986 24.8577 5.19972 25.3227 5.62896L25.594 5.33504C25.0537 4.83628 24.4057 4.586 23.6604 4.586V4.986ZM25.3287 5.63425C25.7989 6.03479 26.0414 6.59377 26.0414 7.338H26.4414C26.4414 6.49689 26.1619 5.81855 25.5881 5.32975L25.3287 5.63425ZM35.9872 27.29L35.9841 27.49L36.1555 27.4926L36.1843 27.3237L35.9872 27.29ZM32.9132 26.884L32.8514 27.0742L32.8527 27.0746L32.9132 26.884ZM31.0572 25.84L30.9127 25.9785L30.9188 25.9844L31.0572 25.84ZM30.1292 24.187L29.9344 24.2328L29.9362 24.2396L30.1292 24.187ZM29.8972 5.192L29.8654 4.99454L29.6972 5.02164V5.192H29.8972ZM34.2182 4.496H34.4182V4.26121L34.1864 4.29854L34.2182 4.496ZM34.3052 22.157L34.5018 22.1201L34.3052 22.157ZM34.6242 22.94L34.4622 23.0578L34.4694 23.0666L34.6242 22.94ZM35.3492 23.462L35.4294 23.2788L35.3492 23.462ZM36.5962 23.723L36.7933 23.7567L36.8304 23.5398L36.611 23.5235L36.5962 23.723ZM35.9903 27.09C34.7442 27.0709 33.7408 26.9366 32.9736 26.6934L32.8527 27.0746C33.6709 27.3341 34.7168 27.4705 35.9841 27.49L35.9903 27.09ZM32.975 26.6938C32.2229 26.4494 31.6328 26.1147 31.1956 25.6956L30.9188 25.9844C31.4095 26.4547 32.0568 26.816 32.8514 27.0742L32.975 26.6938ZM31.2016 25.7016C30.7807 25.2624 30.4876 24.7412 30.3221 24.1344L29.9362 24.2396C30.1187 24.9088 30.4444 25.4896 30.9128 25.9784L31.2016 25.7016ZM30.3239 24.1412C30.1734 23.5015 30.0972 22.7826 30.0972 21.983H29.6972C29.6972 22.8074 29.7757 23.5578 29.9345 24.2328L30.3239 24.1412ZM30.0972 21.983V5.192H29.6972V21.983H30.0972ZM29.929 5.38945L34.25 4.69345L34.1864 4.29854L29.8654 4.99454L29.929 5.38945ZM34.0182 4.496V21.113H34.4182V4.496H34.0182ZM34.0182 21.113C34.0182 21.5093 34.0479 21.87 34.1086 22.1939L34.5018 22.1201C34.4465 21.8253 34.4182 21.49 34.4182 21.113H34.0182ZM34.1086 22.1939C34.171 22.5267 34.2872 22.8167 34.4624 23.0576L34.7859 22.8224C34.6518 22.638 34.5554 22.406 34.5018 22.1201L34.1086 22.1939ZM34.4694 23.0666C34.6675 23.3088 34.9372 23.5001 35.269 23.6452L35.4294 23.2788C35.1425 23.1533 34.9289 22.9965 34.779 22.8134L34.4694 23.0666ZM35.269 23.6452C35.6072 23.7932 36.0479 23.8829 36.5814 23.9225L36.611 23.5235C36.1005 23.4857 35.7098 23.4015 35.4294 23.2788L35.269 23.6452ZM36.399 23.6893L35.79 27.2563L36.1843 27.3237L36.7933 23.7567L36.399 23.6893ZM45.163 27.29L45.1599 27.49L45.3313 27.4926L45.3601 27.3237L45.163 27.29ZM42.089 26.884L42.0271 27.0742L42.0285 27.0746L42.089 26.884ZM40.233 25.84L40.0884 25.9785L40.0946 25.9844L40.233 25.84ZM39.305 24.187L39.1102 24.2328L39.112 24.2396L39.305 24.187ZM39.073 5.192L39.0412 4.99454L38.873 5.02164V5.192H39.073ZM43.394 4.496H43.594V4.26121L43.3622 4.29854L43.394 4.496ZM43.481 22.157L43.6775 22.1201L43.481 22.157ZM43.8 22.94L43.638 23.0578L43.6452 23.0666L43.8 22.94ZM44.525 23.462L44.6051 23.2788L44.525 23.462ZM45.772 23.723L45.9691 23.7567L46.0061 23.5398L45.7867 23.5235L45.772 23.723ZM45.166 27.09C43.92 27.0709 42.9166 26.9366 42.1494 26.6934L42.0285 27.0746C42.8467 27.3341 43.8926 27.4705 45.1599 27.49L45.166 27.09ZM42.1508 26.6938C41.3987 26.4494 40.8086 26.1147 40.3713 25.6956L40.0946 25.9844C40.5853 26.4547 41.2326 26.816 42.0272 27.0742L42.1508 26.6938ZM40.3774 25.7016C39.9565 25.2624 39.6634 24.7412 39.4979 24.1344L39.112 24.2396C39.2945 24.9088 39.6201 25.4896 40.0886 25.9784L40.3774 25.7016ZM39.4997 24.1412C39.3491 23.5015 39.273 22.7826 39.273 21.983H38.873C38.873 22.8074 38.9515 23.5578 39.1103 24.2328L39.4997 24.1412ZM39.273 21.983V5.192H38.873V21.983H39.273ZM39.1048 5.38945L43.4258 4.69345L43.3622 4.29854L39.0412 4.99454L39.1048 5.38945ZM43.194 4.496V21.113H43.594V4.496H43.194ZM43.194 21.113C43.194 21.5093 43.2237 21.87 43.2844 22.1939L43.6775 22.1201C43.6223 21.8253 43.594 21.49 43.594 21.113H43.194ZM43.2844 22.1939C43.3468 22.5267 43.463 22.8167 43.6382 23.0576L43.9617 22.8224C43.8276 22.638 43.7311 22.406 43.6775 22.1201L43.2844 22.1939ZM43.6452 23.0666C43.8433 23.3088 44.113 23.5001 44.4448 23.6452L44.6051 23.2788C44.3183 23.1533 44.1046 22.9965 43.9548 22.8134L43.6452 23.0666ZM44.4448 23.6452C44.783 23.7932 45.2236 23.8829 45.7572 23.9225L45.7867 23.5235C45.2763 23.4857 44.8856 23.4015 44.6051 23.2788L44.4448 23.6452ZM45.5748 23.6893L44.9658 27.2563L45.3601 27.3237L45.9691 23.7567L45.5748 23.6893ZM60.7255 12.152L60.5696 12.0267L60.5694 12.0271L60.7255 12.152ZM59.6815 19.634L59.4892 19.6889L59.4896 19.6902L59.6815 19.634ZM60.7255 21.693L60.8817 21.5681L60.7255 21.693ZM62.4655 23.056L62.3801 23.2369L62.3843 23.2388L62.4655 23.056ZM66.1775 23.491L66.167 23.2913L66.1665 23.2913L66.1775 23.491ZM67.1345 23.375L67.1765 23.5706L67.3345 23.5367V23.375H67.1345ZM67.1345 16.386V16.186H66.9345V16.386H67.1345ZM71.6585 16.386H71.8586V16.186H71.6585V16.386ZM71.6585 26.333L71.7317 26.5191L71.8586 26.4693V26.333H71.6585ZM69.0485 27L69.0105 26.8036L69.0075 26.8043L69.0485 27ZM60.4935 26.681L60.4223 26.8679L60.4233 26.8683L60.4935 26.681ZM57.3615 24.651L57.2186 24.7909L57.3615 24.651ZM55.3315 21.374L55.1432 21.4415L55.1442 21.4439L55.3315 21.374ZM55.4185 12.471L55.233 12.3962L55.4185 12.471ZM57.5645 9.194L57.7044 9.33694L57.706 9.33542L57.5645 9.194ZM60.7545 7.135L60.6843 6.94773L60.6833 6.9481L60.7545 7.135ZM67.2505 6.642L67.2152 6.83893L67.2209 6.83979L67.2505 6.642ZM69.2225 7.077L69.1613 7.26757L69.1694 7.2698L69.2225 7.077ZM70.5855 7.57L70.4961 7.74893L70.4999 7.75075L70.5855 7.57ZM71.3685 7.976L71.5567 8.04374L71.6114 7.89192L71.4745 7.8064L71.3685 7.976ZM70.0635 11.601L69.9697 11.7776L70.1735 11.8859L70.2517 11.6687L70.0635 11.601ZM67.9175 10.76L67.8571 10.9507L67.8626 10.9523L67.9175 10.76ZM65.3075 10.183C63.1647 10.183 61.5683 10.7835 60.5696 12.0267L60.8815 12.2772C61.7775 11.1618 63.2357 10.583 65.3075 10.583V10.183ZM60.5694 12.0271C59.6042 13.2336 59.1335 14.8781 59.1335 16.937H59.5335C59.5335 14.9359 59.9909 13.3904 60.8817 12.2769L60.5694 12.0271ZM59.1335 16.937C59.1335 17.9386 59.2514 18.8564 59.4892 19.6889L59.8739 19.5791C59.6477 18.7876 59.5335 17.9074 59.5335 16.937H59.1335ZM59.4896 19.6902C59.7281 20.5051 60.0873 21.2154 60.5694 21.8179L60.8817 21.5681C60.4357 21.0106 60.099 20.3483 59.8735 19.5778L59.4896 19.6902ZM60.5694 21.8179C61.0531 22.4226 61.6576 22.8957 62.3801 23.2368L62.5509 22.8752C61.8815 22.559 61.326 22.1234 60.8817 21.5681L60.5694 21.8179ZM62.3843 23.2388C63.1108 23.5617 63.9515 23.72 64.9016 23.72V23.32C63.9956 23.32 63.2123 23.169 62.5468 22.8732L62.3843 23.2388ZM64.9016 23.72C65.4064 23.72 65.8357 23.7103 66.1886 23.6907L66.1665 23.2913C65.8234 23.3104 65.402 23.32 64.9016 23.32V23.72ZM66.1881 23.6907C66.5627 23.671 66.8927 23.6314 67.1765 23.5706L67.0926 23.1794C66.835 23.2346 66.527 23.2723 66.167 23.2913L66.1881 23.6907ZM67.3345 23.375V16.386H66.9345V23.375H67.3345ZM67.1345 16.586H71.6585V16.186H67.1345V16.586ZM71.4585 16.386V26.333H71.8586V16.386H71.4585ZM71.5854 26.1469C71.0621 26.3524 70.2073 26.572 69.0105 26.8036L69.0866 27.1964C70.2871 26.964 71.1723 26.7389 71.7317 26.5191L71.5854 26.1469ZM69.0075 26.8043C67.8268 27.0518 66.3625 27.177 64.6115 27.177V27.577C66.3792 27.577 67.873 27.4508 69.0896 27.1957L69.0075 26.8043ZM64.6115 27.177C63.1242 27.177 61.7757 26.9482 60.5638 26.4937L60.4233 26.8683C61.686 27.3418 63.0829 27.577 64.6115 27.577V27.177ZM60.5647 26.4941C59.3725 26.0399 58.3533 25.3788 57.5045 24.5111L57.2186 24.7909C58.1098 25.7019 59.1786 26.3941 60.4223 26.8679L60.5647 26.4941ZM57.5045 24.5111C56.6561 23.6439 55.9936 22.5762 55.5189 21.3041L55.1442 21.4439C55.6362 22.7625 56.327 23.8794 57.2186 24.7909L57.5045 24.5111ZM55.5198 21.3066C55.065 20.0368 54.8355 18.5813 54.8355 16.937H54.4355C54.4355 18.618 54.6701 20.1205 55.1433 21.4414L55.5198 21.3066ZM54.8355 16.937C54.8355 15.2755 55.0934 13.813 55.604 12.5458L55.233 12.3962C54.6997 13.7197 54.4355 15.2345 54.4355 16.937H54.8355ZM55.604 12.5458C56.1167 11.2735 56.8174 10.2051 57.7044 9.33693L57.4247 9.05107C56.4944 9.96156 55.7644 11.0778 55.233 12.3962L55.604 12.5458ZM57.706 9.33542C58.5944 8.44699 59.6337 7.77601 60.8257 7.3219L60.6833 6.9481C59.4394 7.42199 58.352 8.12368 57.4231 9.05258L57.706 9.33542ZM60.8248 7.32226C62.0385 6.86713 63.3292 6.639 64.6985 6.639V6.239C63.2839 6.239 61.9453 6.47487 60.6843 6.94773L60.8248 7.32226ZM64.6985 6.639C65.6367 6.639 66.4752 6.70603 67.2152 6.83885L67.2859 6.44515C66.5179 6.3073 65.6551 6.239 64.6985 6.239V6.639ZM67.2209 6.83979C67.9872 6.95473 68.6333 7.09768 69.1613 7.2674L69.2838 6.88659C68.7291 6.70832 68.0606 6.56127 67.2802 6.44421L67.2209 6.83979ZM69.1694 7.2698C69.723 7.42253 70.1639 7.58278 70.4961 7.74889L70.675 7.39111C70.3112 7.20922 69.8434 7.0408 69.2757 6.8842L69.1694 7.2698ZM70.4999 7.75075C70.8666 7.92444 71.1185 8.05558 71.2626 8.1456L71.4745 7.8064C71.3092 7.70309 71.0391 7.56356 70.6712 7.38925L70.4999 7.75075ZM71.1804 7.90826L69.8754 11.5333L70.2517 11.6687L71.5567 8.04374L71.1804 7.90826ZM70.1574 11.4244C69.5241 11.088 68.7953 10.8028 67.9725 10.5677L67.8626 10.9523C68.6638 11.1812 69.3656 11.4567 69.9697 11.7776L70.1574 11.4244ZM67.978 10.5694C67.1633 10.311 66.2726 10.183 65.3075 10.183V10.583C66.2372 10.583 67.0865 10.7063 67.8571 10.9506L67.978 10.5694ZM82.6249 23.955L82.6348 24.1548L82.6249 23.955ZM83.5528 23.868L83.5857 24.0653L83.7529 24.0374V23.868H83.5528ZM83.5528 20.591H83.7529V20.4306L83.5962 20.3958L83.5528 20.591ZM80.6529 20.504L80.675 20.703L80.684 20.7016L80.6529 20.504ZM79.7249 20.765L79.8143 20.9439L79.7249 20.765ZM79.5219 23.607L79.4177 23.7781L79.4266 23.7829L79.5219 23.607ZM86.2789 13.022L86.1323 13.1581L86.1349 13.1608L86.2789 13.022ZM87.3809 14.994L87.5737 14.941L87.3809 14.994ZM87.6999 26.565L87.7426 26.7604L87.8998 26.726V26.565H87.6999ZM85.1189 27.029L85.0877 26.8314L85.0843 26.832L85.1189 27.029ZM78.4199 27.058L78.377 27.2534L78.3779 27.2536L78.4199 27.058ZM76.3609 26.217L76.2461 26.3809L76.2499 26.3834L76.3609 26.217ZM75.0268 24.651L75.2068 24.5637L75.0268 24.651ZM75.0849 20.04L74.9128 19.9379L74.9105 19.9419L75.0849 20.04ZM76.5349 18.561L76.6394 18.7315L76.5349 18.561ZM78.5938 17.778L78.6331 17.9742L78.6378 17.9731L78.5938 17.778ZM82.4799 17.604L82.4528 17.8024L82.4625 17.8032L82.4799 17.604ZM83.5528 17.778L83.4979 17.9703L83.7529 18.0431V17.778H83.5528ZM78.3909 15.11L78.4176 15.3083L78.4229 15.3074L78.3909 15.11ZM76.5349 15.545L76.3373 15.5763L76.3755 15.8173L76.6043 15.7325L76.5349 15.545ZM75.9838 12.065L75.925 11.8738L75.7592 11.9249L75.7863 12.0963L75.9838 12.065ZM76.9118 11.833L76.9531 12.0288L76.9604 12.027L76.9118 11.833ZM78.1589 11.601L78.1847 11.7995L78.1931 11.798L78.1589 11.601ZM79.5508 11.427L79.5668 11.6265L79.5738 11.6257L79.5508 11.427ZM81.4069 24.184C81.8352 24.184 82.2445 24.1743 82.6348 24.1548L82.6149 23.7552C82.2318 23.7744 81.8292 23.784 81.4069 23.784V24.184ZM82.6348 24.1548C83.025 24.1352 83.3429 24.1058 83.5857 24.0653L83.52 23.6707C83.2988 23.7076 82.9981 23.7361 82.6149 23.7552L82.6348 24.1548ZM83.7529 23.868V20.591H83.3529V23.868H83.7529ZM83.5962 20.3958C83.4114 20.3547 83.1417 20.3151 82.7919 20.2762L82.7478 20.6738C83.094 20.7123 83.3463 20.75 83.5095 20.7862L83.5962 20.3958ZM82.7919 20.2762C82.438 20.2369 82.1116 20.217 81.8129 20.217V20.617C82.0941 20.617 82.4057 20.6358 82.7478 20.6738L82.7919 20.2762ZM81.8129 20.217C81.3973 20.217 81.0002 20.2467 80.6217 20.3064L80.684 20.7016C81.0402 20.6453 81.4164 20.617 81.8129 20.617V20.217ZM80.6308 20.3052C80.2629 20.3461 79.9302 20.4387 79.6354 20.5861L79.8143 20.9439C80.0608 20.8206 80.3468 20.7392 80.6749 20.7028L80.6308 20.3052ZM79.6354 20.5861C79.3363 20.7356 79.096 20.9417 78.9204 21.2051L79.2533 21.4269C79.387 21.2263 79.572 21.065 79.8143 20.9439L79.6354 20.5861ZM78.9204 21.2051C78.739 21.4772 78.6549 21.8083 78.6549 22.186H79.0549C79.0549 21.8677 79.1254 21.6188 79.2533 21.4269L78.9204 21.2051ZM78.6549 22.186C78.6549 22.9087 78.8957 23.46 79.4179 23.7778L79.6258 23.4362C79.2587 23.2127 79.0549 22.8167 79.0549 22.186H78.6549ZM79.4266 23.7829C79.9309 24.056 80.5963 24.184 81.4069 24.184V23.784C80.6321 23.784 80.0408 23.6606 79.6171 23.4311L79.4266 23.7829ZM81.0589 11.54C82.3213 11.54 83.3611 11.6837 84.1843 11.9643L84.3134 11.5857C83.4352 11.2863 82.3484 11.14 81.0589 11.14V11.54ZM84.1843 11.9643C85.0104 12.2459 85.6565 12.6457 86.1323 13.1581L86.4254 12.8859C85.8958 12.3156 85.1887 11.8841 84.3134 11.5857L84.1843 11.9643ZM86.1349 13.1608C86.6321 13.6765 86.9836 14.3037 87.188 15.047L87.5737 14.941C87.3528 14.1376 86.9696 13.4502 86.4228 12.8832L86.1349 13.1608ZM87.188 15.047C87.3952 15.8003 87.4999 16.6424 87.4999 17.575H87.8998C87.8998 16.6129 87.7919 15.7344 87.5737 14.941L87.188 15.047ZM87.4999 17.575V26.565H87.8998V17.575H87.4999ZM87.6571 26.3696C87.0441 26.5037 86.1882 26.6577 85.0877 26.8314L85.15 27.2266C86.2535 27.0523 87.1183 26.8969 87.7426 26.7604L87.6571 26.3696ZM85.0843 26.832C83.9972 27.0227 82.6755 27.119 81.1169 27.119V27.519C82.6902 27.519 84.0365 27.4219 85.1534 27.226L85.0843 26.832ZM81.1169 27.119C80.1424 27.119 79.2577 27.033 78.4618 26.8624L78.3779 27.2536C79.206 27.431 80.1193 27.519 81.1169 27.519V27.119ZM78.4627 26.8627C77.6904 26.6931 77.028 26.4214 76.4718 26.0506L76.2499 26.3834C76.8537 26.7859 77.5639 27.0749 78.377 27.2533L78.4627 26.8627ZM76.4755 26.0532C75.9235 25.6667 75.5013 25.1711 75.2068 24.5637L74.8469 24.7383C75.1711 25.4069 75.6382 25.9553 76.2462 26.3808L76.4755 26.0532ZM75.2068 24.5637C74.9141 23.96 74.7628 23.2087 74.7628 22.302H74.3629C74.3629 23.2513 74.521 24.066 74.8469 24.7383L75.2068 24.5637ZM74.7628 22.302C74.7628 21.4385 74.9318 20.7201 75.2592 20.1381L74.9105 19.9419C74.5419 20.5972 74.3629 21.3869 74.3629 22.302H74.7628ZM75.2568 20.1421C75.608 19.5507 76.0684 19.0815 76.6394 18.7315L76.4303 18.3905C75.8026 18.7752 75.2964 19.292 74.9129 19.9379L75.2568 20.1421ZM76.6394 18.7315C77.2163 18.3779 77.8801 18.1247 78.6331 17.9741L78.5546 17.5819C77.761 17.7406 77.0521 18.0094 76.4303 18.3905L76.6394 18.7315ZM78.6378 17.9731C79.396 17.8025 80.1836 17.717 81.0009 17.717V17.317C80.1555 17.317 79.3384 17.4055 78.5499 17.5829L78.6378 17.9731ZM81.0009 17.717C81.555 17.717 82.0387 17.7457 82.4528 17.8022L82.5069 17.4058C82.0704 17.3463 81.568 17.317 81.0009 17.317V17.717ZM82.4625 17.8032C82.9009 17.8414 83.2445 17.8979 83.4979 17.9703L83.6078 17.5857C83.3199 17.5034 82.9481 17.444 82.4972 17.4048L82.4625 17.8032ZM83.7529 17.778V17.372H83.3529V17.778H83.7529ZM83.7529 17.372C83.7529 16.5939 83.5157 15.9501 83.0273 15.4616L82.7444 15.7444C83.1453 16.1453 83.3529 16.6807 83.3529 17.372H83.7529ZM83.0273 15.4616C82.5253 14.9596 81.684 14.736 80.5658 14.736V15.136C81.6517 15.136 82.3571 15.3571 82.7444 15.7444L83.0273 15.4616ZM80.5658 14.736C79.8206 14.736 79.0849 14.7948 78.3588 14.9126L78.4229 15.3074C79.1275 15.1932 79.8418 15.136 80.5658 15.136V14.736ZM78.3641 14.9118C77.6382 15.0099 77.0045 15.1578 76.4654 15.3574L76.6043 15.7325C77.1092 15.5456 77.7128 15.4034 78.4176 15.3082L78.3641 14.9118ZM76.7324 15.5137L76.1814 12.0337L75.7863 12.0963L76.3373 15.5763L76.7324 15.5137ZM76.0427 12.2562C76.2863 12.1812 76.5894 12.1053 76.9531 12.0287L76.8707 11.6373C76.4997 11.7154 76.184 11.7942 75.925 11.8738L76.0427 12.2562ZM76.9604 12.027C77.3387 11.9324 77.7467 11.8564 78.1847 11.7993L78.133 11.4027C77.6816 11.4616 77.2583 11.5402 76.8633 11.639L76.9604 12.027ZM78.1931 11.798C78.6313 11.7218 79.0892 11.6646 79.5668 11.6264L79.5349 11.2276C79.0459 11.2668 78.5757 11.3255 78.1246 11.404L78.1931 11.798ZM79.5738 11.6257C80.0689 11.5686 80.5639 11.54 81.0589 11.54V11.14C80.5485 11.14 80.0382 11.1694 79.5279 11.2283L79.5738 11.6257ZM91.4622 7.947L91.4303 7.74955L91.2621 7.77664V7.947H91.4622ZM95.7831 7.251H95.9831V7.01621L95.7513 7.05354L95.7831 7.251ZM95.7831 11.746H95.5831V11.946H95.7831V11.746ZM100.974 11.746H101.174V11.546H100.974V11.746ZM100.974 15.342V15.542H101.174V15.342H100.974ZM95.7831 15.342V15.142H95.5831V15.342H95.7831ZM96.2471 22.882L96.0734 22.9813L96.0762 22.9858L96.2471 22.882ZM99.6112 23.578L99.6428 23.7756L99.6489 23.7744L99.6112 23.578ZM100.974 23.201L101.171 23.1654L101.128 22.9284L100.903 23.0141L100.974 23.201ZM101.583 26.565L101.659 26.7502L101.809 26.689L101.78 26.5294L101.583 26.565ZM99.8431 27.116L99.796 26.9216L99.8431 27.116ZM94.5651 26.884L94.4869 27.0681L94.4909 27.0697L94.5651 26.884ZM92.7092 25.55L92.553 25.675L92.5551 25.6775L92.7092 25.55ZM91.7232 23.462L91.5275 23.5039L91.5286 23.5083L91.7232 23.462ZM91.4939 8.14445L95.815 7.44845L95.7513 7.05354L91.4303 7.74955L91.4939 8.14445ZM95.5831 7.251V11.746H95.9831V7.251H95.5831ZM95.7831 11.946H100.974V11.546H95.7831V11.946ZM100.774 11.746V15.342H101.174V11.746H100.774ZM100.974 15.142H95.7831V15.542H100.974V15.142ZM95.5831 15.342V20.707H95.9831V15.342H95.5831ZM95.5831 20.707C95.5831 21.6356 95.7408 22.3989 96.0735 22.9812L96.4208 22.7828C96.1349 22.2824 95.9831 21.5958 95.9831 20.707H95.5831ZM96.0762 22.9858C96.4577 23.6142 97.1929 23.894 98.1901 23.894V23.494C97.254 23.494 96.6939 23.2325 96.4181 22.7782L96.0762 22.9858ZM98.1901 23.894C98.6653 23.894 99.1495 23.8544 99.6427 23.7755L99.5796 23.3805C99.1061 23.4563 98.643 23.494 98.1901 23.494V23.894ZM99.6489 23.7744C100.161 23.6759 100.627 23.5473 101.045 23.3879L100.903 23.0141C100.51 23.164 100.067 23.2867 99.5734 23.3816L99.6489 23.7744ZM100.777 23.2366L101.386 26.6006L101.78 26.5294L101.171 23.1654L100.777 23.2366ZM101.508 26.3798C100.996 26.5881 100.426 26.7689 99.796 26.9216L99.8903 27.3104C100.536 27.1537 101.126 26.9672 101.659 26.7502L101.508 26.3798ZM99.796 26.9216C99.1783 27.0714 98.4122 27.148 97.4941 27.148V27.548C98.4321 27.548 99.232 27.47 99.8903 27.3104L99.796 26.9216ZM97.4941 27.148C96.3305 27.148 95.3815 26.9951 94.6394 26.6983L94.4909 27.0697C95.2955 27.3915 96.2991 27.548 97.4941 27.548V27.148ZM94.6434 26.6999C93.8949 26.3818 93.3039 25.9549 92.8632 25.4225L92.5551 25.6775C93.0424 26.2664 93.6887 26.7288 94.4869 27.0681L94.6434 26.6999ZM92.8653 25.4251C92.4219 24.8708 92.1051 24.2025 91.9177 23.4157L91.5286 23.5083C91.7279 24.3455 92.0684 25.0692 92.553 25.6749L92.8653 25.4251ZM91.9187 23.4201C91.7481 22.6241 91.6621 21.7395 91.6621 20.765H91.2621C91.2621 21.7625 91.3502 22.6759 91.5276 23.5039L91.9187 23.4201ZM91.6621 20.765V7.947H91.2621V20.765H91.6621ZM117.672 22.65L117.861 22.7166L117.861 22.7154L117.672 22.65ZM116.164 25.202L116.31 25.3393L116.312 25.3373L116.164 25.202ZM113.786 26.826L113.71 26.6414L113.708 26.642L113.786 26.826ZM107.638 26.826L107.56 27.01L107.562 27.0106L107.638 26.826ZM105.289 25.202L105.142 25.3373L105.144 25.3393L105.289 25.202ZM103.752 22.65L103.565 22.7186L103.565 22.7198L103.752 22.65ZM103.752 16.067L103.566 15.994L103.565 15.9972L103.752 16.067ZM105.318 13.544L105.175 13.4046L105.173 13.4067L105.318 13.544ZM107.696 11.92L107.62 11.7354L107.618 11.736L107.696 11.92ZM113.728 11.92L113.65 12.104L113.652 12.1046L113.728 11.92ZM116.106 13.544L115.961 13.6813L116.106 13.544ZM117.643 16.067L117.456 16.1368L117.643 16.067ZM112.974 16.212L112.809 16.3239L112.812 16.3286L112.974 16.212ZM108.421 16.212L108.584 16.3286L108.585 16.3267L108.421 16.212ZM108.421 22.534L108.256 22.6468L108.258 22.6487L108.421 22.534ZM112.974 22.534L112.809 22.4212L112.809 22.4221L112.974 22.534ZM117.994 19.344C117.994 20.5232 117.823 21.6028 117.483 22.5846L117.861 22.7154C118.218 21.6866 118.394 20.5621 118.394 19.344H117.994ZM117.484 22.5834C117.144 23.5459 116.655 24.3727 116.017 25.0667L116.312 25.3373C116.989 24.6006 117.505 23.7261 117.861 22.7166L117.484 22.5834ZM116.019 25.0647C115.382 25.7393 114.613 26.265 113.71 26.6414L113.863 27.0106C114.816 26.6137 115.632 26.0567 116.31 25.3393L116.019 25.0647ZM113.708 26.642C112.828 27.0166 111.83 27.206 110.712 27.206V27.606C111.876 27.606 112.928 27.4087 113.865 27.01L113.708 26.642ZM110.712 27.206C109.615 27.206 108.616 27.0168 107.715 26.6414L107.562 27.0106C108.517 27.4085 109.568 27.606 110.712 27.606V27.206ZM107.717 26.642C106.833 26.2657 106.073 25.74 105.435 25.0647L105.144 25.3393C105.821 26.056 106.627 26.6129 107.56 27.01L107.717 26.642ZM105.437 25.0667C104.798 24.3719 104.299 23.544 103.94 22.5802L103.565 22.7198C103.941 23.728 104.466 24.6014 105.142 25.3373L105.437 25.0667ZM103.94 22.5814C103.582 21.6005 103.401 20.522 103.401 19.344H103.001C103.001 20.5633 103.188 21.6888 103.565 22.7186L103.94 22.5814ZM103.401 19.344C103.401 18.1659 103.582 17.0976 103.94 16.1368L103.565 15.9972C103.188 17.0084 103.001 18.1248 103.001 19.344H103.401ZM103.939 16.14C104.317 15.1753 104.826 14.3568 105.464 13.6813L105.173 13.4067C104.496 14.1232 103.961 14.9867 103.566 15.994L103.939 16.14ZM105.462 13.6834C106.12 13.0068 106.89 12.4805 107.775 12.104L107.618 11.736C106.685 12.1329 105.871 12.6892 105.175 13.4046L105.462 13.6834ZM107.773 12.1046C108.675 11.7289 109.654 11.54 110.712 11.54V11.14C109.605 11.14 108.574 11.3378 107.62 11.7354L107.773 12.1046ZM110.712 11.54C111.791 11.54 112.769 11.7291 113.65 12.104L113.807 11.736C112.871 11.3376 111.838 11.14 110.712 11.14V11.54ZM113.652 12.1046C114.555 12.481 115.324 13.0067 115.961 13.6813L116.252 13.4067C115.574 12.6893 114.758 12.1323 113.805 11.7354L113.652 12.1046ZM115.961 13.6813C116.598 14.356 117.097 15.1734 117.456 16.1368L117.831 15.9972C117.455 14.9886 116.929 14.124 116.252 13.4067L115.961 13.6813ZM117.456 16.1368C117.814 17.0976 117.994 18.1659 117.994 19.344H118.394C118.394 18.1248 118.208 17.0084 117.831 15.9972L117.456 16.1368ZM113.986 19.344C113.986 17.9857 113.711 16.8953 113.137 16.0954L112.812 16.3286C113.32 17.0367 113.586 18.0343 113.586 19.344H113.986ZM113.14 16.1001C112.579 15.2681 111.76 14.852 110.712 14.852V15.252C111.637 15.252 112.326 15.6093 112.809 16.3239L113.14 16.1001ZM110.712 14.852C109.665 14.852 108.838 15.2677 108.258 16.0973L108.585 16.3267C109.087 15.6096 109.788 15.252 110.712 15.252V14.852ZM108.259 16.0954C107.685 16.8953 107.409 17.9857 107.409 19.344H107.809C107.809 18.0343 108.076 17.0367 108.584 16.3286L108.259 16.0954ZM107.409 19.344C107.409 20.7031 107.685 21.8102 108.256 22.6468L108.587 22.4212C108.075 21.6724 107.809 20.6529 107.809 19.344H107.409ZM108.258 22.6487C108.838 23.4783 109.665 23.894 110.712 23.894V23.494C109.788 23.494 109.087 23.1364 108.585 22.4193L108.258 22.6487ZM110.712 23.894C111.76 23.894 112.579 23.4779 113.14 22.6459L112.809 22.4221C112.326 23.1367 111.637 23.494 110.712 23.494V23.894ZM113.14 22.6468C113.711 21.8102 113.986 20.7031 113.986 19.344H113.586C113.586 20.6529 113.321 21.6724 112.809 22.4212L113.14 22.6468ZM127.603 23.665L127.688 23.846L127.603 23.665ZM127.458 21.867L127.35 22.0358L127.356 22.0392L127.458 21.867ZM125.515 20.968L125.585 20.7809L125.584 20.7805L125.515 20.968ZM123.659 20.185L123.569 20.3639L123.572 20.3651L123.659 20.185ZM122.267 19.228L122.125 19.3695L122.129 19.373L122.267 19.228ZM121.368 17.865L121.553 17.7895L121.368 17.865ZM122.644 12.587L122.767 12.7446L122.644 12.587ZM129.691 11.601L129.651 11.797L129.655 11.7978L129.691 11.601ZM131.721 12.123L131.916 12.1667L131.954 11.9983L131.793 11.9363L131.721 12.123ZM130.967 15.487L130.901 15.676L131.113 15.7492L131.162 15.5307L130.967 15.487ZM129.314 15.023L129.268 15.2178L129.27 15.2181L129.314 15.023ZM125.747 16.821L125.624 16.9789L125.63 16.9834L125.636 16.9874L125.747 16.821ZM126.443 17.227L126.349 17.4035L126.355 17.4071L126.363 17.4102L126.443 17.227ZM127.603 17.691L127.532 17.8783L127.534 17.8787L127.603 17.691ZM129.952 18.735L129.854 18.9094L129.858 18.9116L129.952 18.735ZM131.402 19.837L131.25 19.9673L131.257 19.9748L131.402 19.837ZM132.156 21.142L131.963 21.196L131.965 21.203L132.156 21.142ZM130.677 26.246L130.564 26.0805L130.563 26.0814L130.677 26.246ZM122.499 27.058L122.448 27.2515L122.449 27.2518L122.499 27.058ZM120.643 26.478L120.447 26.4375L120.414 26.5953L120.561 26.6608L120.643 26.478ZM121.368 22.969L121.441 22.783L121.22 22.6957L121.172 22.9285L121.368 22.969ZM123.63 23.665L123.586 23.8602L123.59 23.8611L123.63 23.665ZM125.921 24.097C126.716 24.097 127.316 24.021 127.688 23.846L127.518 23.484C127.232 23.6183 126.711 23.697 125.921 23.697V24.097ZM127.688 23.846C127.888 23.7518 128.044 23.6097 128.148 23.4204C128.25 23.2335 128.296 23.0121 128.296 22.766H127.896C127.896 22.9645 127.859 23.1153 127.797 23.2281C127.737 23.3384 127.646 23.4235 127.518 23.484L127.688 23.846ZM128.296 22.766C128.296 22.3196 128.017 21.9654 127.559 21.6948L127.356 22.0392C127.749 22.2712 127.896 22.5164 127.896 22.766H128.296ZM127.565 21.6983C127.122 21.4165 126.459 21.1111 125.585 20.7809L125.444 21.1551C126.31 21.4822 126.942 21.7762 127.35 22.0357L127.565 21.6983ZM125.584 20.7805C124.913 20.531 124.3 20.2724 123.746 20.0049L123.572 20.3651C124.139 20.6389 124.763 20.9023 125.445 21.1555L125.584 20.7805ZM123.748 20.0061C123.222 19.7431 122.775 19.435 122.404 19.083L122.129 19.373C122.532 19.7556 123.013 20.0855 123.569 20.3639L123.748 20.0061ZM122.408 19.0866C122.041 18.7193 121.756 18.2876 121.553 17.7895L121.183 17.9405C121.405 18.4864 121.719 18.9633 122.125 19.3694L122.408 19.0866ZM121.553 17.7895C121.353 17.2976 121.249 16.6963 121.249 15.98H120.849C120.849 16.7331 120.958 17.3884 121.183 17.9405L121.553 17.7895ZM121.249 15.98C121.249 14.6066 121.755 13.5354 122.767 12.7446L122.521 12.4294C121.405 13.3012 120.849 14.4921 120.849 15.98H121.249ZM122.767 12.7446C123.784 11.9494 125.195 11.54 127.023 11.54V11.14C125.139 11.14 123.63 11.5619 122.521 12.4294L122.767 12.7446ZM127.023 11.54C127.938 11.54 128.814 11.6258 129.651 11.7969L129.731 11.4051C128.866 11.2282 127.963 11.14 127.023 11.14V11.54ZM129.655 11.7978C130.5 11.9514 131.163 12.1227 131.649 12.3097L131.793 11.9363C131.273 11.7367 130.583 11.56 129.727 11.4042L129.655 11.7978ZM131.526 12.0793L130.772 15.4433L131.162 15.5307L131.916 12.1667L131.526 12.0793ZM131.032 15.298C130.521 15.1212 129.963 14.9646 129.358 14.8279L129.27 15.2181C129.863 15.352 130.407 15.5048 130.901 15.676L131.032 15.298ZM129.359 14.8282C128.761 14.6887 128.088 14.62 127.342 14.62V15.02C128.064 15.02 128.706 15.0866 129.268 15.2178L129.359 14.8282ZM127.342 14.62C126.653 14.62 126.105 14.7148 125.722 14.928C125.527 15.0363 125.373 15.1771 125.267 15.3535C125.161 15.5302 125.112 15.7316 125.112 15.951H125.512C125.512 15.7934 125.547 15.665 125.61 15.5589C125.674 15.4525 125.773 15.3577 125.917 15.2775C126.21 15.1137 126.677 15.02 127.342 15.02V14.62ZM125.112 15.951C125.112 16.1472 125.144 16.3295 125.215 16.4938L125.583 16.3362C125.537 16.2299 125.512 16.1028 125.512 15.951H125.112ZM125.215 16.4938C125.291 16.6719 125.435 16.8323 125.624 16.9789L125.87 16.6631C125.71 16.539 125.622 16.4288 125.583 16.3362L125.215 16.4938ZM125.636 16.9874C125.817 17.1085 126.056 17.2472 126.349 17.4035L126.537 17.0505C126.25 16.8974 126.024 16.7655 125.858 16.6546L125.636 16.9874ZM126.363 17.4102C126.676 17.5475 127.067 17.7035 127.532 17.8783L127.673 17.5037C127.211 17.3305 126.828 17.1772 126.523 17.0438L126.363 17.4102ZM127.534 17.8787C128.475 18.2244 129.247 18.5682 129.854 18.9093L130.05 18.5607C129.419 18.2058 128.625 17.8535 127.672 17.5033L127.534 17.8787ZM129.858 18.9116C130.461 19.232 130.922 19.585 131.25 19.9672L131.554 19.7068C131.185 19.277 130.68 18.8953 130.046 18.5584L129.858 18.9116ZM131.257 19.9748C131.603 20.3393 131.837 20.746 131.963 21.1959L132.348 21.0881C132.204 20.5714 131.935 20.108 131.547 19.6992L131.257 19.9748ZM131.965 21.203C132.112 21.6623 132.188 22.2016 132.188 22.824H132.588C132.588 22.1704 132.509 21.5884 132.346 21.081L131.965 21.203ZM132.188 22.824C132.188 24.273 131.644 25.3483 130.564 26.0805L130.789 26.4115C131.99 25.597 132.588 24.391 132.588 22.824H132.188ZM130.563 26.0814C129.488 26.8226 127.94 27.206 125.892 27.206V27.606C127.981 27.606 129.622 27.2161 130.79 26.4106L130.563 26.0814ZM125.892 27.206C124.548 27.206 123.435 27.0907 122.548 26.8642L122.449 27.2518C123.379 27.4893 124.528 27.606 125.892 27.606V27.206ZM122.549 26.8645C121.66 26.6325 121.055 26.4426 120.724 26.2952L120.561 26.6608C120.926 26.8228 121.559 27.0195 122.448 27.2515L122.549 26.8645ZM120.839 26.5185L121.564 23.0095L121.172 22.9285L120.447 26.4375L120.839 26.5185ZM121.294 23.155C122.039 23.4488 122.802 23.6839 123.586 23.8601L123.674 23.4699C122.91 23.2981 122.166 23.0692 121.441 22.783L121.294 23.155ZM123.59 23.8611C124.376 24.0182 125.153 24.097 125.921 24.097V23.697C125.18 23.697 124.43 23.6211 123.669 23.4689L123.59 23.8611Z" fill="black"/>
</svg>
